<svg width="44" height="44" viewBox="0 0 44 44" fill="none" xmlns="http://www.w3.org/2000/svg">
<path d="M22.0054 42.9204C33.5565 42.9204 42.9204 33.5565 42.9204 22.0054C42.9204 10.4544 33.5565 1.09045 22.0054 1.09045C10.4544 1.09045 1.09045 10.4544 1.09045 22.0054C1.09045 33.5565 10.4544 42.9204 22.0054 42.9204Z" stroke="#0057FF" stroke-width="2" stroke-miterlimit="10"/>
<path d="M22.0054 37.4354C30.5272 37.4354 37.4354 30.5272 37.4354 22.0054C37.4354 13.4837 30.5272 6.57544 22.0054 6.57544C13.4837 6.57544 6.57544 13.4837 6.57544 22.0054C6.57544 30.5272 13.4837 37.4354 22.0054 37.4354Z" stroke="#0057FF" stroke-width="2" stroke-miterlimit="10"/>
<path d="M22.0055 40.1725C32.0389 40.1725 40.1725 32.0388 40.1725 22.0054C40.1725 11.972 32.0389 3.83838 22.0055 3.83838C11.9721 3.83838 3.83844 11.972 3.83844 22.0054C3.83844 32.0388 11.9721 40.1725 22.0055 40.1725Z" stroke="#FF5B00" stroke-width="2" stroke-linecap="round" stroke-linejoin="round"/>
</svg>
